<?xml version="1.0" encoding="UTF-8"?>
<svg width="51px" height="36px" viewBox="0 0 51 36" version="1.1" xmlns="http://www.w3.org/2000/svg" xmlns:xlink="http://www.w3.org/1999/xlink">
    <!-- Generator: Sketch 50.2 (55047) - http://www.bohemiancoding.com/sketch -->
    <title>Fill 1</title>
    <desc>Created with Sketch.</desc>
    <defs></defs>
    <g id="Page-1" stroke="none" stroke-width="1" fill="none" fill-rule="evenodd">
        <g id="Item" transform="translate(-41.000000, -1499.000000)" fill="#098584">
            <path d="M91.9995044,1533.72748 C90.9508742,1535.57141 89.2124078,1534.91458 87.7425414,1534.75909 C86.265737,1534.6036 84.804791,1534.12517 83.379526,1533.65672 C80.0403623,1532.55833 76.71111,1532.48956 73.4026717,1533.67865 C68.865215,1535.31027 64.34659,1535.37905 59.8012041,1533.73845 C56.2568736,1532.45866 52.7492154,1532.64505 49.164248,1533.75838 C47.1442967,1534.38632 44.983603,1534.59862 42.8714754,1534.87371 C41.8327566,1535.00827 41.0804784,1534.26372 41.0051515,1533.33278 C40.9347803,1532.46963 41.5928998,1531.4759 42.5186282,1531.52972 C45.4415115,1531.69717 48.0244325,1530.40443 50.7669276,1529.81337 C54.1229408,1529.09175 57.4541754,1529.25322 60.6813399,1530.42835 C64.6023051,1531.85764 68.4499257,1531.8098 72.3837758,1530.40642 C76.3790768,1528.98011 80.4229438,1529.13162 84.4846515,1530.38648 C86.2597902,1530.93568 88.1380078,1531.18585 89.9874823,1531.42905 C90.9647502,1531.55763 91.5921443,1531.96529 91.9995044,1532.81549 L91.9995044,1533.72748 Z M73.3546012,1518.96359 C73.3546012,1518.39347 73.4438042,1517.88514 73.3228846,1517.43263 C73.2475577,1517.14657 72.8620027,1516.73792 72.6112433,1516.73493 C68.5366508,1516.69107 64.4610671,1516.69107 60.3864746,1516.73493 C60.1347241,1516.73692 59.7412399,1517.14358 59.6708687,1517.42665 C59.5509403,1517.90607 59.638161,1518.43932 59.638161,1518.96359 L73.3546012,1518.96359 Z M66.505797,1522.44812 C64.5433321,1522.44812 62.5818583,1522.42121 60.6213757,1522.47503 C60.2893425,1522.484 59.7343019,1522.80196 59.6897005,1523.05014 C59.5955418,1523.57441 59.3814547,1524.2462 60.210051,1524.56615 C64.3996162,1526.18781 68.5693585,1526.21173 72.7599149,1524.56714 C73.5895023,1524.24221 73.4031673,1523.59435 73.305044,1523.06908 C73.2574691,1522.81292 72.7153134,1522.485 72.3902182,1522.47603 C70.4297356,1522.42121 68.4672707,1522.44812 66.505797,1522.44812 Z M92,1528.02875 C91.0138118,1529.76802 89.368513,1529.23677 87.9571241,1529.06533 C86.4406739,1528.88094 84.9361175,1528.45136 83.4781449,1527.96595 C80.062663,1526.83268 76.6739421,1526.77288 73.2862123,1527.99685 C68.7477644,1529.63745 64.2241837,1529.6235 59.6857359,1527.98987 C56.2970149,1526.76989 52.8914445,1526.78584 49.5007413,1527.99585 C47.3549148,1528.76233 45.1674602,1529.27066 42.8709798,1529.19092 C41.811447,1529.15404 41.067098,1528.5301 41.0046559,1527.60813 C40.9471696,1526.74896 41.6152005,1525.77716 42.5399378,1525.81603 C45.2982912,1525.93065 47.7543458,1524.77546 50.346187,1524.19138 C52.2025995,1523.77376 54.1442504,1523.73688 56.2365552,1523.51062 L56.2365552,1522.44413 C56.2365552,1517.31801 56.2206968,1512.19089 56.2405197,1507.06477 C56.2573692,1503.06892 58.5726813,1500.08874 62.2974,1499.19368 C66.8199896,1498.10726 71.5308965,1501.7403 71.5953208,1506.36507 C71.6121703,1507.59403 71.0055902,1508.37246 69.9886766,1508.4233 C68.9519401,1508.47612 68.2938205,1507.78938 68.1897504,1506.54747 C68.0034154,1504.30984 66.3640634,1502.58751 64.3302361,1502.49182 C61.9058982,1502.3772 60.0019108,1503.73274 59.7848503,1506.10692 C59.5727455,1508.42928 59.7392576,1510.78552 59.7392576,1513.20455 L73.3565835,1513.20455 C73.3565835,1511.3387 73.3238758,1509.49178 73.3694684,1507.64685 C73.3952381,1506.59232 73.3972204,1505.49793 73.6727584,1504.49622 C74.6847163,1500.83528 78.3142852,1498.56974 82.1579412,1499.08803 C85.6160422,1499.5535 88.5319875,1502.78287 88.6201993,1506.24248 C88.6558805,1507.61695 88.107778,1508.37446 87.0452717,1508.4233 C85.95204,1508.47413 85.3405042,1507.80932 85.2126467,1506.43684 C85.0193736,1504.3517 83.5049058,1502.69615 81.6147944,1502.4988 C79.4204018,1502.27155 77.5838122,1503.42276 76.9494801,1505.43912 C76.859286,1505.72319 76.7908971,1506.02918 76.7899059,1506.3252 C76.7809856,1512.05833 76.7829679,1517.79145 76.7829679,1523.6073 C78.1011893,1523.69202 79.4164372,1523.68106 80.6989774,1523.88439 C82.1391095,1524.11065 83.5435604,1524.55917 84.9767544,1524.8552 C86.5873632,1525.1881 88.2019366,1525.5529 89.8343506,1525.71736 C90.7868399,1525.81304 91.4409948,1526.19179 92,1526.8885 L92,1528.02875 Z" id="Fill-1"></path>
        </g>
    </g>
</svg>