<?xml version="1.0" encoding="UTF-8"?>
<svg width="36px" height="36px" viewBox="0 0 36 36" version="1.1" xmlns="http://www.w3.org/2000/svg" xmlns:xlink="http://www.w3.org/1999/xlink">
    <!-- Generator: Sketch 50.2 (55047) - http://www.bohemiancoding.com/sketch -->
    <title>Combined Shape</title>
    <desc>Created with Sketch.</desc>
    <defs></defs>
    <g id="Page-1" stroke="none" stroke-width="1" fill="none" fill-rule="evenodd">
        <g id="Item" transform="translate(-173.000000, -1499.000000)" fill="#098584">
            <path d="M209,1508.40346 C208.921966,1508.81319 208.679974,1509.12533 208.395895,1509.40934 C208.026769,1509.77599 207.662903,1510.1488 207.270103,1510.49083 C206.926404,1510.79066 206.491518,1510.87243 206.048742,1510.82144 C205.898812,1510.80473 205.73836,1510.70098 205.623501,1510.59283 C204.857191,1509.86919 204.090004,1509.14644 203.346491,1508.40082 C201.693751,1506.74253 200.05504,1505.07192 198.411068,1503.40484 C198.290949,1503.2835 198.189242,1503.14194 198.062108,1503.02763 C197.713148,1502.71022 197.668432,1502.31631 197.791181,1501.89954 C197.856064,1501.67532 197.947249,1501.43353 198.098056,1501.26647 C198.548724,1500.76704 199.014296,1500.27817 199.514064,1499.82887 C199.871792,1499.50794 200.32772,1499.44727 200.789786,1499.60729 C200.929195,1499.65565 201.071234,1499.73654 201.175571,1499.83942 C203.161489,1501.79578 205.1439,1503.75654 207.122803,1505.71994 C207.540153,1506.13408 207.941721,1506.56491 208.354686,1506.98432 C208.634381,1507.26833 208.90443,1507.55585 209,1507.96119 L209,1508.40346 Z M209,1502.07003 C208.9018,1502.38129 208.701893,1502.62572 208.47919,1502.85257 C208.093404,1503.24384 207.702358,1503.63072 207.325341,1504.00792 C206.244265,1502.92379 205.170203,1501.84669 204.065454,1500.73882 C204.605554,1500.24028 205.145653,1499.71711 205.71381,1499.22736 C206.039097,1498.946 206.436281,1498.93808 206.814175,1499.13592 C207.02285,1499.24495 207.228894,1499.3786 207.398991,1499.54126 C207.800558,1499.92638 208.203003,1500.31589 208.55547,1500.74321 C208.7545,1500.98413 208.85533,1501.30594 209,1501.59171 L209,1502.07003 Z M178.261333,1516.65779 C178.75847,1516.62614 179.189848,1516.85035 179.570373,1517.22755 C180.470831,1518.12089 181.394962,1518.98872 182.289283,1519.88821 C184.899472,1522.51018 187.500893,1525.14182 190.10319,1527.77258 C190.460042,1528.13396 190.811633,1528.50237 191.148318,1528.88221 C191.25967,1529.0097 191.355239,1529.17764 191.389434,1529.34206 C191.443794,1529.60848 191.456946,1529.88721 191.46133,1530.16066 C191.465714,1530.46313 191.291234,1530.69877 191.09308,1530.90012 C190.350444,1531.65541 189.603423,1532.4063 188.847634,1533.1484 C188.522347,1533.46845 188.12341,1533.45614 187.715705,1533.33305 C187.353593,1533.22314 187.067761,1532.99365 186.803849,1532.73515 C185.657014,1531.61409 184.501411,1530.49918 183.367728,1529.36317 C181.045125,1527.03399 178.732167,1524.69515 176.420962,1522.35455 C175.951882,1521.87887 175.502968,1521.38384 175.057561,1520.88705 C174.663008,1520.44742 174.643718,1519.62179 175.051423,1519.19623 C175.770387,1518.44446 176.520915,1517.7217 177.257414,1516.98752 C177.52308,1516.72198 177.852751,1516.64109 178.261333,1516.65779 Z M203.774922,1517.60626 C203.610963,1517.58779 203.447004,1517.57021 203.283922,1517.54823 C203.019133,1517.5113 202.812212,1517.36798 202.62458,1517.18333 C201.366394,1515.94533 200.095056,1514.72139 198.846514,1513.47459 C196.61685,1511.25005 194.397707,1509.01496 192.179441,1506.77811 C191.732281,1506.32529 191.318438,1505.8373 190.873032,1505.38272 C190.487246,1504.98705 190.376771,1503.87126 190.838837,1503.40262 C191.59901,1502.63062 192.347784,1501.84632 193.125492,1501.09191 C193.514785,1500.71382 194.353868,1500.75251 194.769464,1501.14115 C195.574352,1501.89468 196.380118,1502.64821 197.161333,1503.42636 C199.839911,1506.09405 202.510598,1508.77053 205.177778,1511.45053 C205.726645,1512.00182 206.256223,1512.57247 206.779664,1513.14927 C207.111088,1513.51504 207.308365,1513.95028 207.226824,1514.45849 C207.198767,1514.62379 207.126871,1514.81371 207.012889,1514.93066 C206.241318,1515.72463 205.452211,1516.50454 204.666612,1517.28533 C204.421112,1517.528 204.119498,1517.62384 203.774922,1517.60626 Z M184.398204,1520.23344 C187.627403,1516.99511 190.874138,1513.73831 194.103336,1510.49998 C195.169507,1511.56916 196.245322,1512.64802 197.313246,1513.71984 C194.08317,1516.95906 190.839066,1520.21321 187.608114,1523.45243 C186.541066,1522.38236 185.465251,1521.3035 184.398204,1520.23344 Z M185.167212,1532.14428 C185.144415,1532.64459 185.038324,1533.05256 184.728819,1533.37086 C184.29218,1533.81665 183.853788,1534.26243 183.389092,1534.67745 C182.880557,1535.13027 182.103725,1535.10213 181.620617,1534.61941 C179.207704,1532.20759 176.802683,1529.78697 174.392402,1527.37163 C174.089034,1527.06829 173.860193,1526.73681 173.877729,1526.27871 C173.889127,1526.01053 173.98119,1525.77313 174.131997,1525.56299 C174.573019,1524.94486 175.09646,1524.40587 175.717224,1523.96712 C176.067938,1523.72005 176.462491,1523.63124 176.884224,1523.7262 C177.013989,1523.75522 177.156905,1523.81677 177.251597,1523.90909 C178.975356,1525.59816 180.699992,1527.28635 182.408846,1528.99036 C183.254944,1529.83358 184.070354,1530.70669 184.895408,1531.57188 C185.062874,1531.74598 185.199653,1531.94381 185.167212,1532.14428 Z M174.740187,1529.8438 C175.836168,1530.942 176.911107,1532.02086 178.009718,1533.1217 C177.530993,1533.58068 177.051392,1534.07043 176.538473,1534.52325 C176.085175,1534.92243 175.563488,1534.85825 175.086517,1534.57776 C174.350018,1534.14341 173.738022,1533.55078 173.272449,1532.83682 C172.858607,1532.20375 172.942778,1531.77467 173.346099,1531.32712 C173.803781,1530.81803 174.282505,1530.32916 174.740187,1529.8438 Z" id="Combined-Shape"></path>
        </g>
    </g>
</svg>