<svg xmlns="http://www.w3.org/2000/svg" viewBox="0 0 34.04 36.49"><defs><style>.cls-1,.cls-2{fill:#519899;}.cls-2{font-size:4.68px;font-family:Montserrat-Bold, Montserrat;font-weight:700;}.cls-3{letter-spacing:0.01em;}</style></defs><title>ingles</title><g id="Capa_2" data-name="Capa 2"><g id="Capa_1-2" data-name="Capa 1"><path class="cls-1" d="M33.62,2.57A4.21,4.21,0,0,0,30.09.07.75.75,0,0,1,30,0H4L3.55.13A4.36,4.36,0,0,0,.08,3.69.44.44,0,0,1,0,3.84V4.3c0,6.13.09,18.44.11,18.55a4.46,4.46,0,0,0,4.46,3.49c2.48,0,5,0,7.44,0a1.3,1.3,0,0,1,.67.19c1.3.82,2.58,1.66,3.87,2.48a.84.84,0,0,0,1,0c1.36-.85,2.71-1.72,4.09-2.55a1.3,1.3,0,0,1,.66-.12c2.35,0,4.71,0,7.06,0A4.46,4.46,0,0,0,34,22.66s.05-.05.07-.07V3.84A11.11,11.11,0,0,0,33.62,2.57ZM15.28,18.29c-.21,0-5.77.05-5.87,0-1-.07-1.42-.49-1.42-1.51V9.48C8,8.43,8.44,8,9.48,8h5.15a1.88,1.88,0,0,1,.53.06.89.89,0,0,1,.75,1.1A.94.94,0,0,1,15,10c-.74,0-3.7,0-4.46,0v1.92H14.1a5.67,5.67,0,0,1,.58.05.9.9,0,0,1,.85,1,.92.92,0,0,1-.95.91c-1.16,0-3.85,0-4.05,0v2.31h4.09a3.49,3.49,0,0,1,.65.05,1,1,0,0,1,.82,1A.94.94,0,0,1,15.28,18.29ZM27.14,17c0,.77-.28,1.24-.81,1.43a1.56,1.56,0,0,1-1.79-.61c-.67-1-3-4.6-3.65-5.53,0,.21,0,.32,0,.43v4.11a4,4,0,0,1-.05.69,1.11,1.11,0,0,1-1.12,1,1.09,1.09,0,0,1-1.11-1c0-.21,0-8.1,0-8.29a1.28,1.28,0,0,1,1-1.21,1.25,1.25,0,0,1,1.44.54c.81,1.19,1.59,2.4,2.39,3.61l1.33,2,.07,0c0-1.39,0-4.82,0-5.14A1.07,1.07,0,0,1,26,8a1.09,1.09,0,0,1,1.12,1C27.14,9.21,27.14,16.94,27.14,17Z"/><text class="cls-2" transform="translate(9.56 35.25)">I<tspan class="cls-3" x="1.54" y="0">n</tspan><tspan x="4.8" y="0">glés</tspan></text></g></g></svg>