<svg xmlns="http://www.w3.org/2000/svg" viewBox="0 0 34.04 36.49"><defs><style>.cls-1,.cls-2{fill:#519899;}.cls-2{font-size:4.68px;font-family:Montserrat-Bold, Montserrat;font-weight:700;}.cls-3{letter-spacing:-0.02em;}</style></defs><title>matematicas</title><g id="Capa_2" data-name="Capa 2"><g id="Capa_1-2" data-name="Capa 1"><path class="cls-1" d="M29.9,0H4.14A4.41,4.41,0,0,0,0,4.64V24.53a4.41,4.41,0,0,0,4.14,4.64H29.9A4.41,4.41,0,0,0,34,24.53V4.64A4.41,4.41,0,0,0,29.9,0ZM14,16.41c-.29,1.93-.57,3.86-.87,5.79a1.11,1.11,0,0,1-.83.85c-.55,0-1.11,0-1.67,0H8.54L6.82,11.5h1a12.92,12.92,0,0,1,1.54,0c.4,0,.7.66.75,1l.25,1.53c.12.81.25,1.64.4,2.48L11.44,12c.25-1.69.5-3.37.77-5a1.08,1.08,0,0,1,.85-.84c4.06,0,8.12,0,12.17,0h1a.83.83,0,0,1,.26.06l.24.09.07.31v3H15Zm13.25,6.65H25.74c-.74,0-1.43,0-2.12,0-.3,0-.51-.32-.67-.56-.46-.66-.89-1.3-1.34-2l-.2-.3-.24.36c-.44.65-.85,1.27-1.3,1.87a1.56,1.56,0,0,1-1,.6c-.35,0-.71,0-1.07,0H15.59l3.86-5.79L15.6,11.51h1.47c.73,0,1.4,0,2.08,0,.3,0,.54.3.71.56.44.63.87,1.27,1.33,1.95l.22.32.26-.39c.42-.6.82-1.19,1.2-1.8a1.3,1.3,0,0,1,1.23-.69c.53,0,1.06,0,1.64,0h1.48l-3.86,5.79Z"/><text class="cls-2" transform="translate(1.39 35.25)">Ma<tspan class="cls-3" x="7.36" y="0">t</tspan><tspan x="9.32" y="0">emáticas</tspan></text></g></g></svg>