<?xml version="1.0" encoding="UTF-8"?>
<svg width="16px" height="15px" viewBox="0 0 16 15" version="1.1" xmlns="http://www.w3.org/2000/svg" xmlns:xlink="http://www.w3.org/1999/xlink">
    <!-- Generator: Sketch 50.2 (55047) - http://www.bohemiancoding.com/sketch -->
    <title>hambruguesa</title>
    <desc>Created with Sketch.</desc>
    <defs></defs>
    <g id="Page-1" stroke="none" stroke-width="1" fill="none" fill-rule="evenodd">
        <g id="lista" transform="translate(-293.000000, -27.000000)" fill="#FEFEFE">
            <g id="hambruguesa" transform="translate(293.000000, 27.000000)">
                <path d="M13.6280816,2.9467617 L1.51420408,2.9467617 C0.677877551,2.9467617 -0.000183673469,2.28697447 -0.000183673469,1.47348511 C-0.000183673469,0.659697872 0.677877551,-8.93617021e-05 1.51420408,-8.93617021e-05 L13.6280816,-8.93617021e-05 C14.4644082,-8.93617021e-05 15.1421633,0.659697872 15.1421633,1.47348511 C15.1421633,2.28697447 14.4644082,2.9467617 13.6280816,2.9467617 Z M13.6280816,8.54265106 L1.51420408,8.54265106 C0.677877551,8.54265106 -0.000183673469,7.88286383 -0.000183673469,7.0690766 C-0.000183673469,6.25528936 0.677877551,5.59550213 1.51420408,5.59550213 L13.6280816,5.59550213 C14.4644082,5.59550213 15.1421633,6.25528936 15.1421633,7.0690766 C15.1421633,7.88286383 14.4644082,8.54265106 13.6280816,8.54265106 Z M13.6280816,14.1382128 L1.51420408,14.1382128 C0.677877551,14.1382128 -0.000183673469,13.4784255 -0.000183673469,12.6649362 C-0.000183673469,11.8508511 0.677877551,11.1910638 1.51420408,11.1910638 L13.6280816,11.1910638 C14.4644082,11.1910638 15.1421633,11.8508511 15.1421633,12.6649362 C15.1421633,13.4784255 14.4644082,14.1382128 13.6280816,14.1382128 Z" id="Combined-Shape"></path>
            </g>
        </g>
    </g>
</svg>