<?xml version="1.0" encoding="UTF-8"?>
<svg width="20px" height="20px" viewBox="0 0 20 20" version="1.1" xmlns="http://www.w3.org/2000/svg" xmlns:xlink="http://www.w3.org/1999/xlink">
    <!-- Generator: Sketch 50.2 (55047) - http://www.bohemiancoding.com/sketch -->
    <title>lupa</title>
    <desc>Created with Sketch.</desc>
    <defs></defs>
    <g id="Symbols" stroke="none" stroke-width="1" fill="none" fill-rule="evenodd">
        <g id="lupa" fill="#FFFFFF">
            <path d="M13.9967588,7.80089104 C13.8647683,4.29343068 10.8916349,1.77252826 7.56678517,2.01627293 C4.23117176,2.26075342 1.81039247,5.11427786 2.01168849,8.37776119 C2.21437838,11.6641319 5.05854141,14.3144196 8.60636939,13.9697923 C11.7937695,13.6601739 14.0985102,10.9366543 13.9967588,7.80089104 Z M20,18.9363872 C19.9581471,19.0376659 19.922658,19.1422356 19.8735042,19.2398705 C19.4473229,20.0864582 18.3299828,20.2620209 17.6513955,19.5831993 C15.9881325,17.9193302 14.3286957,16.251504 12.6689074,14.5841087 C12.614483,14.5293752 12.5729034,14.4617516 12.5255846,14.4004751 C10.5636901,15.7472264 8.4581605,16.2290934 6.17229635,15.7078512 C4.16940789,15.2511765 2.56416116,14.1554082 1.40161054,12.4551806 C-0.774506835,9.272602 -0.3905688,5.03096606 2.37152843,2.29840155 C5.27667519,-0.575678813 9.79007489,-0.768010294 12.9420055,1.7986688 C15.8583573,4.17344739 17.0242265,8.72303311 14.3445857,12.5820826 C14.4005328,12.6190679 14.4758446,12.6526838 14.530308,12.7072215 C16.0731658,14.2519853 17.6130954,15.7996092 19.1556018,17.3446865 C19.4898005,17.6794741 19.8430906,17.9978456 20,18.4662349 L20,18.9363872 Z"></path>
        </g>
    </g>
</svg>